# WaveFront *.obj file (generated by Cinema 4D)

mtllib ./zvezda.mtl

v 0.0761006847024 -0.02472662366927 0
v -0.00000008001704 -0.08001703768969 0
v -0.0761007592082 -0.02472654357553 0
v -0.04703273251653 0.06473521888256 0
v 0.0470329746604 0.06473506242037 0
v 0.00000040008518 0.20954917371273 0
v -0.19929306209087 0.06475458294153 0
v -0.12317014485598 -0.16952873766422 0
v 0.12316989898682 -0.16952888667583 0
v 0.19929315149784 0.06475426256657 0
v 0 0 0.06849095225334
v 0 0 -0.06848650425673
# 12 vertices

vn 0.69123983383179 -0.2245030850172 -0.68686664104462
vn 0 0 0
vn -0.00009243037493 -0.72678357362747 -0.68686658143997
vn 0.42711967229843 0.58803308010101 -0.68686676025391
vn 0.69118374586105 -0.22467611730099 -0.68686658143997
vn -0.4272657930851 0.5879271030426 -0.68686658143997
vn 0.42726624011993 0.58792638778687 -0.6868668794632
vn -0.69118422269821 -0.22467532753944 -0.68686634302139
vn -0.42711877822876 0.58803415298462 -0.68686634302139
vn 0.00009164752555 -0.72678411006927 -0.68686598539352
vn -0.69124066829681 -0.22450044751167 -0.68686676025391
vn -0.69121950864792 -0.22449353337288 0.68689030408859
vn 0.00009164532094 -0.72676187753677 0.68688952922821
vn -0.42710572481155 0.58801609277725 0.68688994646072
vn -0.69116300344467 -0.22466847300529 0.68688988685608
vn 0.42725318670273 0.58790838718414 0.68689042329788
vn -0.42725268006325 0.58790904283524 0.6868901848793
vn 0.69116258621216 -0.22466921806335 0.68689012527466
vn 0.42710655927658 0.58801501989365 0.68689036369324
vn -0.00009242939996 -0.72676122188568 0.68689012527466
vn 0 -1 0
vn 0.69121867418289 -0.22449617087841 0.68689024448395
vn 0 -1 0
# 23 normals

o Mesh_Mesh.015
usemtl Material.001
f 4//1 6//1 11//1
f 4//3 11//3 7//3
f 3//4 7//4 11//4
f 3//5 11//5 8//5
f 2//6 8//6 11//6
f 2//7 11//7 9//7
f 1//8 9//8 11//8
f 1//9 11//9 10//9
f 5//10 10//10 11//10
f 5//11 11//11 6//11
f 5//12 6//12 12//12
f 5//13 12//13 10//13
f 1//14 10//14 12//14
f 1//15 12//15 9//15
f 2//16 9//16 12//16
f 2//17 12//17 8//17
f 3//18 8//18 12//18
f 3//19 12//19 7//19
f 4//20 7//20 12//20
f 4//22 12//22 6//22

